<svg width="22" height="22" viewBox="0 0 22 22" fill="none" xmlns="http://www.w3.org/2000/svg">
<path fill-rule="evenodd" clip-rule="evenodd" d="M5.86667 0C2.6266 0 0 2.6266 0 5.86667V16.1333C0 19.3734 2.6266 22 5.86667 22H16.1333C19.3734 22 22 19.3734 22 16.1333V5.86667C22 2.6266 19.3734 0 16.1333 0H5.86667ZM12.7544 4.40384C12.2818 4.40443 11.8085 4.40502 11.3335 4.41176C11.321 5.90834 11.3223 7.40573 11.3231 8.90453C11.3235 9.74226 11.324 10.5806 11.3221 11.4197C11.3201 11.7011 11.3204 11.9821 11.3207 12.2631C11.3215 13.019 11.3224 13.7738 11.277 14.5309C11.2704 14.7411 11.1555 14.9258 11.0439 15.1052C11.035 15.1195 11.0261 15.1337 11.0173 15.148C10.6488 15.6988 9.97129 16.075 9.2643 16.082C8.19788 16.1686 7.19889 15.3679 7.04838 14.4151C7.04724 14.3684 7.04544 14.3214 7.04363 14.2743C7.03334 14.0056 7.02283 13.7315 7.13432 13.4811C7.29295 13.0648 7.59642 12.7078 7.99799 12.4652C8.54687 12.1156 9.28092 12.0633 9.90909 12.2497C9.90909 11.8824 9.91593 11.5153 9.92277 11.1482C9.93194 10.6557 9.94112 10.1633 9.93377 9.67056C8.55874 9.43456 7.09016 9.83342 6.04179 10.6708C5.11686 11.3897 4.52098 12.4465 4.40703 13.5512C4.39558 13.8391 4.39812 14.1274 4.41462 14.4151C4.54567 15.7737 5.44543 17.0395 6.72408 17.731C7.49564 18.1481 8.40015 18.3746 9.30561 18.3271C10.7818 18.3045 12.219 17.5786 13.0471 16.4652C13.5618 15.7963 13.8538 14.9886 13.9032 14.1769C13.916 13.0619 13.9152 11.9449 13.9144 10.8264C13.914 10.2502 13.9136 9.67354 13.915 9.09665C14.2441 9.29391 14.5802 9.48681 14.9411 9.6366C15.7696 9.99714 16.6869 10.1713 17.6 10.1988V7.86088C16.6257 7.76116 15.6243 7.46637 14.9164 6.82235C14.207 6.19401 13.8585 5.28873 13.8087 4.4C13.4575 4.40297 13.1062 4.40341 12.7544 4.40384Z" fill="#737373"/>
</svg>

