<svg width="22" height="22" viewBox="0 0 22 22" fill="none" xmlns="http://www.w3.org/2000/svg">
<path d="M16.1338 0C19.3735 0.00024608 21.9998 2.6265 22 5.86621V16.1338C21.9998 19.3735 19.3735 21.9998 16.1338 22H5.86621C2.6265 21.9998 0.000246436 19.3735 0 16.1338V5.86621C0.000246082 2.6265 2.6265 0.000246434 5.86621 0H16.1338ZM11.6514 9.70801L8.88281 5.99316L5.59668 5.97754L9.83691 11.6689L5.50879 16.2949L6.23926 16.5527L10.2744 12.2559L13.1973 16.1787H16.4746L12.083 10.2871L16.0908 6.02246L15.3711 5.73535L11.6514 9.70801ZM8.34082 7.06543L14.334 15.1055L13.7354 15.1045L7.74316 7.06152L8.34082 7.06543Z" fill="#737373"/>
</svg>

